<?xml version="1.0" encoding="UTF-8"?>
<svg version="1.1" xmlns="http://www.w3.org/2000/svg" width="300" height="300">
<path d="M0 0 C99 0 198 0 300 0 C300 99 300 198 300 300 C201 300 102 300 0 300 C0 201 0 102 0 0 Z " fill="#02018B" transform="translate(0,0)"/>
<path d="M0 0 C43.89 0 87.78 0 133 0 C133 61.05 133 122.1 133 185 C128.05 185 123.1 185 118 185 C118.061875 186.5675 118.12375 188.135 118.1875 189.75 C118.12953222 204.87958946 111.90117349 219.70881296 102 231 C101.2265625 231.97839844 100.453125 232.95679688 99.65625 233.96484375 C90.97936514 244.36142742 77.16198302 250.23329087 64 252 C48.81902579 253.19971225 35.2754251 248.07212347 23.3125 238.875 C10.55672335 227.90466395 1.52965586 211.7230695 -0.22543049 194.83021212 C-0.57573299 188.99948958 -0.50213618 183.1649506 -0.45410156 177.32666016 C-0.45297094 175.38373335 -0.45361114 173.44080485 -0.45587158 171.49787903 C-0.45701126 166.26525101 -0.43362374 161.03299568 -0.40557575 155.80045366 C-0.3804367 150.31656352 -0.37821029 144.83266324 -0.37347412 139.34872437 C-0.36108091 128.98285529 -0.32830906 118.61715655 -0.28807616 108.2513622 C-0.23484853 94.23083926 -0.21338343 80.21026918 -0.19006729 66.18967056 C-0.15254482 44.12631965 -0.07282962 22.06332806 0 0 Z " fill="#EFB803" transform="translate(163,4)"/>
<path d="M0 0 C14.19 0 28.38 0 43 0 C43 6.6 43 13.2 43 20 C44.505625 19.938125 46.01125 19.87625 47.5625 19.8125 C71.37760231 19.90362922 94.51031873 30.34229843 112 46 C112.63292969 46.55042969 113.26585938 47.10085937 113.91796875 47.66796875 C121.86043835 55.02883875 127.5685834 64.36793986 131.9375 74.1875 C132.21980469 74.8158374 132.50210938 75.4441748 132.79296875 76.09155273 C136.46305963 84.79115234 137.36899773 93.56542647 137.3125 102.9375 C137.30512817 104.390354 137.30512817 104.390354 137.29760742 105.87255859 C137.18593764 112.66780784 136.54302775 118.6475371 134 125 C133.64808594 125.96679688 133.29617187 126.93359375 132.93359375 127.9296875 C128.42201623 139.6329876 121.75643854 149.0840899 113 158 C112.26265625 158.76183594 111.5253125 159.52367187 110.765625 160.30859375 C103.73040294 167.1195386 95.6666658 171.60844144 87 176 C86.01257813 176.50660156 85.02515625 177.01320312 84.0078125 177.53515625 C58.12800179 189.52198076 26.92300247 185 0 185 C0 123.95 0 62.9 0 0 Z " fill="#EEB703" transform="translate(4,4)"/>
<path d="M0 0 C17.9158468 13.92076185 28.76550556 31.88996808 32.8203125 54.19140625 C-14.3696875 54.19140625 -61.5596875 54.19140625 -110.1796875 54.19140625 C-106.6986575 39.10694294 -106.6986575 39.10694294 -103.4296875 33.00390625 C-102.90362915 31.99239502 -102.90362915 31.99239502 -102.36694336 30.96044922 C-91.96330078 11.35530015 -76.41434937 -3.66168656 -55.0546875 -10.68359375 C-36.40268157 -15.25861407 -15.72645942 -10.61421387 0 0 Z " fill="#EEB703" transform="translate(127.1796875,241.80859375)"/>
<path d="M0 0 C-1.40844718 3.21524305 -3.10344786 5.32183868 -5.625 7.75 C-6.57246094 8.67039063 -6.57246094 8.67039063 -7.5390625 9.609375 C-8.02117188 10.06828125 -8.50328125 10.5271875 -9 11 C-9.33 10.01 -9.66 9.02 -10 8 C-8.71451591 6.66070495 -7.42141845 5.32871357 -6.125 4 C-5.04605469 2.88625 -5.04605469 2.88625 -3.9453125 1.75 C-2 0 -2 0 0 0 Z " fill="#E0AD0D" transform="translate(47,246)"/>
</svg>
